<svg xmlns="http://www.w3.org/2000/svg" viewBox="0 0 1200 700" preserveAspectRatio="xMidYMid slice">
<defs><linearGradient id="sky" x1="0" y1="0" x2="0" y2="1"><stop offset="0" stop-color="#DCE8D2"/><stop offset="1" stop-color="#C4D6B4"/></linearGradient></defs>
<rect width="1200" height="700" fill="url(#sky)"/>
<path d="M0 294 Q 300 210 600 280 T 1200 252 V700 H0Z" fill="#7C925F" opacity="0.55"/>
<rect y="385.00000000000006" width="1200" height="315" fill="#8A7350"/>
<path d="M0 434 H1200 V700 H0Z" fill="#B99B6B" opacity="0.9"/>
<g fill="#41603A"><path d="M40 286 L78.4 364 H1.6000000000000014Z"/><path d="M40 322 L88 406 H-8Z"/><rect x="34" y="406" width="12" height="21.599999999999998"/></g>
<g fill="#2F4A26"><path d="M163 245 L214.52 349.65 H111.47999999999999Z"/><path d="M163 293.3 L227.4 406 H98.6Z"/><rect x="154.95" y="406" width="16.1" height="28.98"/></g>
<g fill="#41603A"><path d="M256 264 L301.44 356.3 H210.56Z"/><path d="M256 306.6 L312.8 406 H199.2Z"/><rect x="248.9" y="406" width="14.200000000000001" height="25.56"/></g>
<g fill="#2F4A26"><path d="M349 283 L388.36 362.95 H309.64Z"/><path d="M349 319.9 L398.2 406 H299.8Z"/><rect x="342.85" y="406" width="12.3" height="22.14"/></g>
<g fill="#41603A"><path d="M442 242 L494.48 348.6 H389.52Z"/><path d="M442 291.2 L507.6 406 H376.4Z"/><rect x="433.8" y="406" width="16.400000000000002" height="29.52"/></g>
<g fill="#2F4A26"><path d="M565 261 L611.4 355.25 H518.6Z"/><path d="M565 304.5 L623 406 H507Z"/><rect x="557.75" y="406" width="14.5" height="26.099999999999998"/></g>
<g fill="#41603A"><ellipse cx="60" cy="462" rx="34" ry="18.700000000000003"/><ellipse cx="87.2" cy="467.1" rx="23.799999999999997" ry="13.600000000000001"/><ellipse cx="32.8" cy="468.12" rx="20.4" ry="11.899999999999999"/></g>
<g fill="#5C7A3D"><ellipse cx="215.70000000000002" cy="525" rx="51" ry="28.05"/><ellipse cx="256.5" cy="532.65" rx="35.699999999999996" ry="20.400000000000002"/><ellipse cx="174.9" cy="534.18" rx="30.599999999999998" ry="17.849999999999998"/></g>

  <g transform="translate(660 518) scale(1.5)">
    <rect x="30" y="-52" width="86" height="44" rx="6" fill="#171A17"/>
    <rect x="78" y="-46" width="30" height="24" rx="3" fill="#E8A20C"/>
    <rect x="36" y="-46" width="34" height="26" rx="3" fill="#3A3F3A"/>
    <rect x="-14" y="-34" width="48" height="28" rx="4" fill="#171A17"/>
    <rect x="-18" y="-40" width="10" height="34" rx="3" fill="#E8A20C"/>
    <rect x="22" y="-10" width="100" height="20" rx="10" fill="#171A17"/>
    <circle cx="34" cy="0" r="6" fill="#cfc9bb"/><circle cx="70" cy="0" r="6" fill="#cfc9bb"/><circle cx="108" cy="0" r="6" fill="#cfc9bb"/>
  </g>
<rect x="0" y="504" width="10" height="4" rx="2" fill="#6b5636" transform="rotate(-20 0 504)"/>
<rect x="199" y="553" width="18" height="4" rx="2" fill="#6b5636" transform="rotate(3 199 553)"/>
<rect x="398" y="602" width="26" height="4" rx="2" fill="#6b5636" transform="rotate(-14 398 602)"/>
<rect x="597" y="651" width="10" height="4" rx="2" fill="#6b5636" transform="rotate(9 597 651)"/>
<rect x="796" y="532" width="18" height="4" rx="2" fill="#6b5636" transform="rotate(-8 796 532)"/>
<rect x="995" y="581" width="26" height="4" rx="2" fill="#6b5636" transform="rotate(15 995 581)"/>
<rect x="1194" y="629.9999999999999" width="10" height="4" rx="2" fill="#6b5636" transform="rotate(-2 1194 629.9999999999999)"/>
<rect x="193" y="511" width="18" height="4" rx="2" fill="#6b5636" transform="rotate(-19 193 511)"/>
<rect x="392" y="560" width="26" height="4" rx="2" fill="#6b5636" transform="rotate(4 392 560)"/>
<rect x="591" y="609" width="10" height="4" rx="2" fill="#6b5636" transform="rotate(-13 591 609)"/>
<rect x="790" y="658" width="18" height="4" rx="2" fill="#6b5636" transform="rotate(10 790 658)"/>
<rect x="989" y="539" width="26" height="4" rx="2" fill="#6b5636" transform="rotate(-7 989 539)"/>
<rect x="1188" y="588" width="10" height="4" rx="2" fill="#6b5636" transform="rotate(16 1188 588)"/>
<rect x="187" y="637" width="18" height="4" rx="2" fill="#6b5636" transform="rotate(-1 187 637)"/>
<rect x="386" y="518" width="26" height="4" rx="2" fill="#6b5636" transform="rotate(-18 386 518)"/>
<rect x="585" y="567" width="10" height="4" rx="2" fill="#6b5636" transform="rotate(5 585 567)"/>
<rect x="784" y="616" width="18" height="4" rx="2" fill="#6b5636" transform="rotate(-12 784 616)"/>
<rect x="983" y="665" width="26" height="4" rx="2" fill="#6b5636" transform="rotate(11 983 665)"/>
<rect x="1182" y="546" width="10" height="4" rx="2" fill="#6b5636" transform="rotate(-6 1182 546)"/>
<rect x="181" y="595" width="18" height="4" rx="2" fill="#6b5636" transform="rotate(17 181 595)"/>
<rect x="380" y="644" width="26" height="4" rx="2" fill="#6b5636" transform="rotate(0 380 644)"/>
<rect x="579" y="525" width="10" height="4" rx="2" fill="#6b5636" transform="rotate(-17 579 525)"/>
<rect x="778" y="574" width="18" height="4" rx="2" fill="#6b5636" transform="rotate(6 778 574)"/>
<rect x="977" y="623" width="26" height="4" rx="2" fill="#6b5636" transform="rotate(-11 977 623)"/>
<rect x="1176" y="504" width="10" height="4" rx="2" fill="#6b5636" transform="rotate(12 1176 504)"/>
<rect x="175" y="553" width="18" height="4" rx="2" fill="#6b5636" transform="rotate(-5 175 553)"/>
</svg>